<mxfile host="Electron" modified="2023-06-03T10:16:47.699Z" agent="Mozilla/5.0 (Windows NT 10.0; Win64; x64) AppleWebKit/537.36 (KHTML, like Gecko) draw.io/21.2.8 Chrome/112.0.5615.165 Electron/24.2.0 Safari/537.36" etag="hexjY7hb8N0idKoBKYoS" version="21.2.8" type="device">
  <diagram name="Page-1" id="PE3bYBtEpD1UVspkA5Zi">
    <mxGraphModel dx="1434" dy="836" grid="1" gridSize="10" guides="1" tooltips="1" connect="1" arrows="1" fold="1" page="1" pageScale="1" pageWidth="1169" pageHeight="827" math="0" shadow="0">
      <root>
        <mxCell id="0" />
        <mxCell id="1" parent="0" />
        <mxCell id="ttbJZ9X2-MhoJryFTya0-8" style="edgeStyle=orthogonalEdgeStyle;rounded=0;orthogonalLoop=1;jettySize=auto;html=1;entryX=0;entryY=0.5;entryDx=0;entryDy=0;startArrow=classic;startFill=1;" edge="1" parent="1" source="ttbJZ9X2-MhoJryFTya0-1" target="ttbJZ9X2-MhoJryFTya0-2">
          <mxGeometry relative="1" as="geometry" />
        </mxCell>
        <mxCell id="ttbJZ9X2-MhoJryFTya0-1" value="App.Web.Mvc" style="rounded=0;whiteSpace=wrap;html=1;fillColor=#60a917;fontColor=#ffffff;strokeColor=#2D7600;fontStyle=1" vertex="1" parent="1">
          <mxGeometry x="170" y="330" width="120" height="60" as="geometry" />
        </mxCell>
        <mxCell id="ttbJZ9X2-MhoJryFTya0-9" style="edgeStyle=orthogonalEdgeStyle;rounded=0;orthogonalLoop=1;jettySize=auto;html=1;entryX=0;entryY=0.5;entryDx=0;entryDy=0;startArrow=classic;startFill=1;" edge="1" parent="1" source="ttbJZ9X2-MhoJryFTya0-2" target="ttbJZ9X2-MhoJryFTya0-3">
          <mxGeometry relative="1" as="geometry" />
        </mxCell>
        <mxCell id="ttbJZ9X2-MhoJryFTya0-2" value="App.Business" style="rounded=0;whiteSpace=wrap;html=1;fillColor=#0050ef;fontColor=#ffffff;strokeColor=#001DBC;fontStyle=1" vertex="1" parent="1">
          <mxGeometry x="420" y="330" width="120" height="60" as="geometry" />
        </mxCell>
        <mxCell id="ttbJZ9X2-MhoJryFTya0-10" style="edgeStyle=orthogonalEdgeStyle;rounded=0;orthogonalLoop=1;jettySize=auto;html=1;entryX=0;entryY=0.5;entryDx=0;entryDy=0;entryPerimeter=0;startArrow=classic;startFill=1;" edge="1" parent="1" source="ttbJZ9X2-MhoJryFTya0-3" target="ttbJZ9X2-MhoJryFTya0-4">
          <mxGeometry relative="1" as="geometry" />
        </mxCell>
        <mxCell id="ttbJZ9X2-MhoJryFTya0-3" value="App.Data" style="rounded=0;whiteSpace=wrap;html=1;fillColor=#f0a30a;fontColor=#000000;strokeColor=#BD7000;fontStyle=1" vertex="1" parent="1">
          <mxGeometry x="660" y="330" width="120" height="60" as="geometry" />
        </mxCell>
        <mxCell id="ttbJZ9X2-MhoJryFTya0-4" value="Database" style="shape=cylinder3;whiteSpace=wrap;html=1;boundedLbl=1;backgroundOutline=1;size=15;fillColor=#647687;fontColor=#ffffff;strokeColor=#314354;" vertex="1" parent="1">
          <mxGeometry x="920" y="300" width="80" height="120" as="geometry" />
        </mxCell>
        <mxCell id="ttbJZ9X2-MhoJryFTya0-5" value="Controller&lt;br&gt;Model&lt;br&gt;View&lt;br&gt;ViewModel" style="text;html=1;strokeColor=none;fillColor=none;align=center;verticalAlign=top;whiteSpace=wrap;rounded=0;" vertex="1" parent="1">
          <mxGeometry x="170" y="400" width="120" height="140" as="geometry" />
        </mxCell>
        <mxCell id="ttbJZ9X2-MhoJryFTya0-6" value="Entities&lt;br&gt;DbContext&lt;br&gt;Entity Configurations" style="text;html=1;strokeColor=none;fillColor=none;align=center;verticalAlign=top;whiteSpace=wrap;rounded=0;" vertex="1" parent="1">
          <mxGeometry x="660" y="404" width="120" height="140" as="geometry" />
        </mxCell>
        <mxCell id="ttbJZ9X2-MhoJryFTya0-11" value="Services/Managers" style="text;html=1;strokeColor=none;fillColor=none;align=center;verticalAlign=top;whiteSpace=wrap;rounded=0;" vertex="1" parent="1">
          <mxGeometry x="420" y="400" width="120" height="140" as="geometry" />
        </mxCell>
      </root>
    </mxGraphModel>
  </diagram>
</mxfile>
